SubjTestrun_81
version=1
nRows=86
nColumns=19
inDegrees=no
endheader
time	l_ground_force_vx	l_ground_force_vy	l_ground_force_vz	l_ground_force_px	l_ground_force_py	l_ground_force_pz	ground_force_vx	ground_force_vy	ground_force_vz	ground_force_px	ground_force_py	ground_force_pz	l_ground_torque_x	l_ground_torque_y	l_ground_torque_z	ground_torque_x	ground_torque_y	ground_torque_z	
14.59	-61.0755073674274	727.133042352644	43.8168963002308	0.00156773672643494	0	-0.0198943556349989	-45.3914079844429	237.795042100723	-25.6765808879003	-0.0364558245101805	0	0.00334722933143236	0	-49.2357153273872	0	0	-0.372594387994872	0
14.6	-73.3580369810804	796.666329560654	49.298862143881	-3.44879244855603e-05	0	-0.0215904405816631	-59.7683622967674	256.881565322822	-23.2057875512215	-0.0246469149512279	0	0.00819209753098395	0	-62.7823863070266	0	0	0.0466365284569946	0
14.61	-75.893291751557	871.752630597479	55.8508951956917	-0.00540141371585474	0	-0.0237116694167484	-71.2938901145151	267.21667365192	-19.3785260313305	-0.0128631095659903	0	0.0128830227933743	0	-62.9078368593007	0	0	0.00989672935856825	0
14.62	-69.2264362410398	947.904957967603	61.8203356473126	-0.0151348211791573	0	-0.0254698761782013	-80.2117050829941	274.540670594068	-15.825648446868	-0.00653677931983504	0	0.0166705453246956	0	-50.1392367605063	0	0	-0.862214420149474	0
14.63	-54.9633411486351	1015.39325731511	64.9962586094005	-0.0288193662999616	0	-0.0264549352701908	-86.5865585086156	281.225005251058	-14.4826951006851	-0.0105662051918728	0	0.018209062082092	0	-27.1036907984798	0	0	-2.36222617716159	0
14.64	-38.2972338826057	1065.37204084994	66.1848730133079	-0.0458530107447005	0	-0.0265203045485838	-88.0850038058113	287.71433121977	-15.3406515654332	-0.0259478438186979	0	0.0172199071876586	0	-1.58197555910287	0	0	-3.95331303103327	0
14.65	-21.1559211727902	1090.78043398891	64.8753483927466	-0.0652709798018774	0	-0.0258338967483511	-81.8312099799246	293.305520313764	-18.3405913755491	-0.0498508552448208	0	0.014021181716515	0	23.1919976305139	0	0	-4.89529491983413	0
14.66	-2.97094645988463	1089.29415095255	61.7252074780861	-0.085968183960493	0	-0.0247106084846769	-68.2147316617217	296.562078662267	-22.7355068875148	-0.0782764064589483	0	0.00980929995033419	0	47.6917907063318	0	0	-4.74146523566023	0
14.67	17.2291781892557	1063.66850487593	58.193350089631	-0.106517570283314	0	-0.023576885476551	-50.3734106819282	296.264457031961	-27.2943339454474	-0.106944648115195	0	0.00614093702635072	0	73.3773062164449	0	0	-3.58386733168172	0
14.68	36.8410825907975	1018.53881296707	55.2411085414568	-0.125711251204744	0	-0.0227562428529902	-30.0925161229171	292.305658251672	-31.2564594848199	-0.130700584763632	0	0.004257655459985	0	97.0983555537447	0	0	-1.96141587411433	0
14.69	53.2903805589781	958.726409090178	52.6382673332666	-0.142789089891042	0	-0.0224702474953005	-8.70166083572442	284.636310108947	-34.6319198052472	-0.145682043916112	0	0.00465750258034669	0	115.815892653002	0	0	-0.625730353936912	0
14.7	66.7809748886995	888.374928945293	49.857936860623	-0.157521606924116	0	-0.0228543773281565	10.1690499184618	272.062342121404	-37.4828955053238	-0.152574393269047	0	0.00696829967628702	0	130.251139960582	0	0	-0.0168954477222503	0
14.71	77.6885434733901	809.49402850977	46.5437308335413	-0.170335543678249	0	-0.0238564456763961	23.2502806603453	252.751080295142	-39.8529286828509	-0.154961329967474	0	0.0101339357860523	0	141.18159146429	0	0	-0.41727666793087	0
14.72	83.6716290119225	722.590203734099	43.130223688957	-0.18294983300936	0	-0.0252729339729637	31.1815504458767	225.381303935162	-41.4749098012491	-0.155976644185337	0	0.012774684217883	0	145.662648192449	0	0	-1.69348710826447	0
14.73	83.5129578838774	627.151366046847	39.7608262570868	-0.197838511718244	0	-0.0266272075483703	35.5889060160462	190.137386208446	-42.0144019816677	-0.159679180657696	0	0.0129872273960534	0	141.991750550066	0	0	-3.42552013698362	0
14.74	79.6314929293829	523.335559932311	36.0458788847123	-0.217176338415577	0	-0.0272678300464203	36.0395354831125	149.421987090366	-41.4076865839041	-0.173581254946271	0	0.00820189322180215	0	132.884745269829	0	0	-5.23705345904299	0
14.75	74.6876916847815	414.506521870304	31.7100861907824	-0.242527305687056	0	-0.0264692940286274	32.7336099681386	107.499006192553	-39.6037611539614	-0.208897201320695	0	-0.00558090692459598	0	121.469427295357	0	0	-6.5292173695615	0
14.76	68.8973892580335	307.957444429707	26.914470303339	-0.275753565238393	0	-0.0234477042789464	28.2739795691327	69.165400558283	-36.0960151588848	-0.280680942001723	0	-0.0354216882611865	0	108.077849644556	0	0	-6.63320729378416	0
14.77	62.0708014657222	212.490549875944	21.8902843836286	-0.318915136004656	0	-0.0168069988685155	24.7848345198076	38.0974382896443	-30.5975010821721	-0.416125441127476	0	-0.0988126386337094	0	93.0146425818615	0	0	-5.47493164004748	0
14.78	55.1469756863964	135.396746400002	17.0807229989603	-0.370576574260655	0	-0.00462221783327677	0	0	0	0	0	0	0	78.4332278996821	0	0	0	0
14.79	48.4954933709111	79.706846900417	13.3651676301139	-0.417466882538751	0	0.0151171330029284	0	0	0	0	0	0	0	65.4769171784076	0	0	0	0
14.8	41.1261260686156	43.892245227202	11.3542701775314	-0.417105133161345	0	0.0415817687480927	0	0	0	0	0	0	0	53.1656773961915	0	0	0	0
14.81	31.8187382120912	23.4803820315814	10.9495940307321	-0.274575168908133	0	0.0681460144225255	0	0	0	0	0	0	0	39.9634089107931	0	0	0	0
14.82	0	0	0	0	0	0	0	0	0	0	0	0	0	0	0	0	0	0
14.83	0	0	0	0	0	0	0	0	0	0	0	0	0	0	0	0	0	0
14.84	0	0	0	0	0	0	0	0	0	0	0	0	0	0	0	0	0	0
14.85	0	0	0	0	0	0	0	0	0	0	0	0	0	0	0	0	0	0
14.86	0	0	0	0	0	0	0	0	0	0	0	0	0	0	0	0	0	0
14.87	0	0	0	0	0	0	0	0	0	0	0	0	0	0	0	0	0	0
14.88	0	0	0	0	0	0	0	0	0	0	0	0	0	0	0	0	0	0
14.89	0	0	0	0	0	0	0	0	0	0	0	0	0	0	0	0	0	0
14.9	0	0	0	0	0	0	0	0	0	0	0	0	0	0	0	0	0	0
14.91	0	0	0	0	0	0	0	0	0	0	0	0	0	0	0	0	0	0
14.92	0	0	0	0	0	0	-2.70581150423139	64.121368416572	-13.289805146698	0.0619217721523857	0	0.0481935698682799	0	0	0	0	-1.10799349609622	0
14.93	0	0	0	0	0	0	-9.75993838135474	176.019939149398	-14.1011885445867	0.0103802929374642	0	0.0535225943815958	0	0	0	0	-1.5391762663762	0
14.94	0	0	0	0	0	0	-13.7675265601359	343.032329414794	-12.9905099162996	-0.0103613350426661	0	0.0529661880089839	0	0	0	0	-0.875969542005218	0
14.95	0	0	0	0	0	0	-22.8970694631991	534.023889576022	-9.21512649521672	-0.0211488025088602	0	0.0521731785311518	0	0	0	0	0.179822450401949	0
14.96	0	0	0	0	0	0	-42.3404500661856	688.433014722569	-2.70508832350462	-0.0274928015923008	0	0.0513308787898316	0	0	0	0	0.544860752885541	0
14.97	0	0	0	0	0	0	-67.345759417798	786.12910668696	2.84479217610298	-0.0324399412343212	0	0.0510945603535349	0	0	0	0	0.170164416587745	0
14.98	0	0	0	0	0	0	-91.6407820257198	858.694004008567	-0.941412097288364	-0.038249487104133	0	0.0518917851497493	0	0	0	0	0.0525843679661577	0
14.99	0	0	0	0	0	0	-104.727946560773	937.720209779936	-12.8723382287296	-0.0455727703406683	0	0.0537406792186763	0	0	0	0	0.836497974586463	0
15	0	0	0	0	0	0	-104.188691134312	1034.44026939697	-28.9046013330022	-0.0544217233486895	0	0.0560303619505776	0	0	0	0	2.14836531168491	0
15.01	0	0	0	0	0	0	-94.4705667573502	1140.74759313289	-44.3801090196158	-0.0646638582039399	0	0.058057881061453	0	0	0	0	3.34836760363974	0
15.02	0	0	0	0	0	0	-80.8698509274643	1239.66926931904	-55.5679186729737	-0.0765835843168543	0	0.059452027926902	0	0	0	0	4.11871220888258	0
15.03	0	0	0	0	0	0	-66.152908909251	1314.99611075214	-62.5158764673805	-0.0905534821598091	0	0.0600666817867068	0	0	0	0	4.48085576029289	0
15.04	0	0	0	0	0	0	-50.2000751139038	1357.43779897874	-66.5261095841128	-0.106527652658916	0	0.0600185180145331	0	0	0	0	4.66179725991761	0
15.05	0	0	0	0	0	0	-32.4302117732885	1365.50397991814	-69.3812088586653	-0.124089063912194	0	0.0594619726001628	0	0	0	0	4.82822006470925	0
15.06	0	0	0	0	0	0	-11.3031284315477	1343.61646471355	-71.5516682648254	-0.142635181525791	0	0.0586678271861333	0	0	0	0	5.36262438776385	0
15.07	0	0	0	0	0	0	14.0739086543509	1298.52617160602	-72.2085224024456	-0.161157914076364	0	0.0578801608789543	0	0	0	0	6.61203264853527	0
15.08	0	0	0	0	0	0	42.161649010106	1235.75130875182	-70.2749508002154	-0.17839318315191	0	0.05726856722615	0	0	0	0	8.41890772512573	0
15.09	0	0	0	0	0	0	70.2102204913204	1158.01321283752	-65.71888622591	-0.193487922791526	0	0.0568210785195202	0	0	0	0	10.5007889826642	0
15.1	0	0	0	0	0	0	96.1703333038679	1065.89388332641	-59.1217574253683	-0.206466291264276	0	0.0564059693938751	0	0	0	0	12.3623039110182	0
15.11	0	0	0	0	0	0	117.942125363971	959.416313047434	-51.6921329219254	-0.217967564329197	0	0.0558210967899116	0	0	0	0	13.3301728361202	0
15.12	0	0	0	0	0	0	133.306822040641	839.460923946547	-44.6621499409355	-0.229185712254511	0	0.0548049993078324	0	0	0	0	12.865559625668	0
15.13	0	0	0	0	0	0	141.009528388967	709.411452985975	-38.6777259080678	-0.242106042997796	0	0.053084996331974	0	0	0	0	11.2137125668037	0
15.14	0	0	0	0	0	0	141.35915956431	575.594241799743	-33.8003224220075	-0.258909648168063	0	0.0503794432398583	0	0	0	0	8.98760667239189	0
15.15	0	0	0	0	0	0	135.561273618223	446.466468829428	-29.6742268034855	-0.281300534500997	0	0.0464176027521756	0	0	0	0	6.8164754974487	0
15.16	0	0	0	0	0	0	124.771343100861	330.596506155831	-25.8118145826814	-0.309704608204011	0	0.0409634127567393	0	0	0	0	5.36989414490904	0
15.17	0	0	0	0	0	0	110.491491847948	234.007235935559	-21.5666353841028	-0.341877502295268	0	0.0342165895962676	0	0	0	0	4.77894472907422	0
15.18	0	0	0	0	0	0	94.5326403243438	158.748088383453	-17.3548213560781	-0.370766418356065	0	0.0270117161679762	0	0	0	0	4.76679180913098	0
15.19	0	0	0	0	0	0	78.0663671708144	103.591427104697	-13.8156874706422	-0.380556784642464	0	0.0209838594786	0	0	0	0	4.84896289966507	0
15.2	0	0	0	0	0	0	61.351550067855	65.4696038418471	-11.1200880168402	-0.344432842552346	0	0.0193211065156858	0	0	0	0	4.69728624514664	0
15.21	0	0	0	0	0	0	44.4545282776666	40.3793939758962	-9.22325992399167	-0.233130071687325	0	0.0249485462533661	0	0	0	0	3.92597778355776	0
15.22	0	0	0	0	0	0	28.4124859746598	24.0423801428228	-8.30515104474598	-0.0387381012925021	0	0.0326279012957161	0	0	0	0	2.39628863332889	0
15.23	0	0	0	0	0	0	0	0	0	0	0	0	0	0	0	0	0	0
15.24	0	0	0	0	0	0	0	0	0	0	0	0	0	0	0	0	0	0
15.25	0	0	0	0	0	0	0	0	0	0	0	0	0	0	0	0	0	0
15.26	0	0	0	0	0	0	0	0	0	0	0	0	0	0	0	0	0	0
15.27	0	0	0	0	0	0	0	0	0	0	0	0	0	0	0	0	0	0
15.28	0	0	0	0	0	0	0	0	0	0	0	0	0	0	0	0	0	0
15.29	0	0	0	0	0	0	0	0	0	0	0	0	0	0	0	0	0	0
15.3	0	0	0	0	0	0	0	0	0	0	0	0	0	0	0	0	0	0
15.31	-5.93798370681611	54.6499343370997	19.490240310911	0.0776991535632778	0	-0.0527423097436142	0	0	0	0	0	0	0	-6.39581163834407	0	0	0	0
15.32	-10.708793386175	161.488534492957	26.7817589599535	0.0230525369865672	0	-0.07929523648331	0	0	0	0	0	0	0	-7.40052649171796	0	0	0	0
15.33	-13.5873220378537	323.526607293944	36.1115778770145	-5.68481828233734e-05	0	-0.0834482732459055	0	0	0	0	0	0	0	-4.06528237593765	0	0	0	0
15.34	-23.8615711926604	518.781431264367	45.7404895132546	-0.0115953912640275	0	-0.0837853473610358	0	0	0	0	0	0	0	-8.97619253601363	0	0	0	0
15.35	-49.3937014860809	695.172936181984	53.6294596741469	-0.0177115996528104	0	-0.0830782403841259	0	0	0	0	0	0	0	-33.8310625834443	0	0	0	0
15.36	-83.4758402635806	820.879828784629	60.6737172457139	-0.0218218005704334	0	-0.0824269004863377	0	0	0	0	0	0	0	-71.4703099880513	0	0	0	0
15.37	-116.659071105705	914.434490628394	72.0415589822058	-0.0258897333455062	0	-0.0825419271351632	0	0	0	0	0	0	0	-109.613098551315	0	0	0	0
15.38	-137.725123584701	1000.17870893847	86.5976538917245	-0.030687101014195	0	-0.0835299210284158	0	0	0	0	0	0	0	-133.018996957077	0	0	0	0
15.39	-141.871425064629	1086.72482048657	100.113889158161	-0.0370993848207175	0	-0.0850668340004	0	0	0	0	0	0	0	-134.81151678376	0	0	0	0
15.4	-133.671847566653	1173.10287681282	111.456136396584	-0.0458314244914664	0	-0.0866874076415275	0	0	0	0	0	0	0	-120.619041204707	0	0	0	0
15.41	-118.664891114091	1254.66735279381	119.698557606839	-0.0571264803454243	0	-0.0880346674999455	0	0	0	0	0	0	0	-97.3087546295193	0	0	0	0
15.42	-100.84864044316	1324.02925509044	125.090023123401	-0.0710268041632359	0	-0.088826018158388	0	0	0	0	0	0	0	-70.2913208797677	0	0	0	0
15.43	-80.3162884108439	1370.61657055258	126.987008867817	-0.0874023984488424	0	-0.0890353264480335	0	0	0	0	0	0	0	-40.4443758181984	0	0	0	0
15.44	-56.6952998532308	1386.8327268397	126.049479579771	-0.10595891813566	0	-0.088717082139941	0	0	0	0	0	0	0	-7.94164201568059	0	0	0	0
